# xmcd
# 
# Track frame offsets:
#     182
#     28727
#     39387
#     64300
#     75507
#     77417
#     101702
#     112257
#     124822
#     129995
#     138517
#     169347
#     217225
# 
# Disc length: 3050
# 
# Revision: 5
# Processed by: cddbd v1.5.2PL0 Copyright (c) Steve Scherf et al.
# Submitted via: fre:ac v1.0.31
# 
DISCID=bb0be80d
DTITLE=Various Artist - Blues In The Mississippi Night
DYEAR=1990
DGENRE=Blues
TTITLE0=Memphis Slim - Life is Like That
TTITLE1=Country Baptist congregation - Long Meter Hymn
TTITLE2=Sonny Boy Williamson - I Can Hear My Name Ringin'
TTITLE3=Memphis Slim - Ratty Section
TTITLE4=Memphis Slim - I'm Going To Memphis
TTITLE5=Memphis Slim - Have You Ever Been To Nashville
TTITLE6=Big Bill Broonzy - Bama's Stackerlee
TTITLE7=Big Bill Broonzy - Oh 'Berta
TTITLE8=Big Bill Broonzy - Murderer's Home (I Ain't Got Long Mama)
TTITLE9=Big Bill Broonzy - Don't You Hear Your Poor Mother Calling
TTITLE10=Big Bill Broonzy - Slow Lonesome Blues
TTITLE11=Vera Hall - Another Man Done Gone
TTITLE12=Big Bill Broonzy - Fast Boogie
EXTD=w/Memphis Slim, Big Bill Broonzy, Sonny Boy Williamson\nmore info YEAR: 1990
EXTT0=
EXTT1=
EXTT2=
EXTT3=
EXTT4=
EXTT5=
EXTT6=
EXTT7=
EXTT8=
EXTT9=
EXTT10=
EXTT11=
EXTT12=
PLAYORDER=
